<svg width="266" height="101" viewBox="0 0 266 101" fill="none" xmlns="http://www.w3.org/2000/svg">
<g opacity="0.8">
<path d="M36.5182 91.4115L37.5309 88.8733C35.3828 88.2054 33.2347 87.4039 31.2093 86.4955L29.767 88.9C31.9458 89.8886 34.2166 90.7435 36.5182 91.4382L36.5182 91.4115ZM23.5067 85.5336L25.2865 83.3428C23.4146 82.1939 21.604 80.9115 19.9162 79.5489L17.7988 81.526C19.6094 82.9687 21.512 84.3313 23.5067 85.5336ZM12.766 76.9038L15.1597 75.1672C13.6867 73.6176 12.3057 71.9878 11.0783 70.3046L8.46978 71.7474C9.78936 73.5374 11.2317 75.2741 12.7967 76.8771L12.766 76.9038ZM4.91003 66.1634L7.73321 65.0145C6.75122 63.1977 5.92266 61.3008 5.24752 59.4038L2.30154 60.2054C3.00738 62.2092 3.89736 64.213 4.94073 66.1634L4.91003 66.1634ZM0.613765 53.9802L3.68252 53.5527C3.55978 52.8046 3.43698 52.0832 3.34494 51.3351C3.19149 50.1061 3.13015 48.8237 3.09945 47.5679L-4.15852e-06 47.5679C-4.27765e-06 48.9305 0.0920977 50.2664 0.24554 51.6023C0.337611 52.4038 0.460322 53.1786 0.613765 53.9802ZM3.52905 41.5832C3.8359 39.6061 4.29626 37.629 4.91003 35.6786L1.93332 34.9573C1.28888 37.0145 0.797848 39.1252 0.460293 41.2092L3.52905 41.5565L3.52905 41.5832ZM87.521 36.1061C89.485 36.1061 91.5717 35.5985 93.4437 34.6634L91.8786 32.3389C90.0374 33.2741 87.8585 33.6481 86.1707 33.3008L85.4649 35.9191C86.1401 36.0527 86.8152 36.1328 87.521 36.1328L87.521 36.1061ZM230.955 33.2473C233.41 33.2473 235.865 33.1138 238.197 32.9267L237.921 30.2283C235.65 30.4153 233.318 30.4954 230.924 30.5222L230.924 33.2206L230.955 33.2473ZM223.774 33.1138L223.958 30.4153C221.687 30.3084 219.324 30.1214 216.961 29.9076L216.624 32.5794C219.048 32.8199 221.472 33.0069 223.805 33.1138L223.774 33.1138ZM245.439 32.0985C247.864 31.7244 250.257 31.2435 252.528 30.6825L251.669 28.0909C249.49 28.6252 247.188 29.0794 244.887 29.4535L245.439 32.0985ZM209.443 31.6977L209.934 29.026C207.602 28.6786 205.3 28.3046 202.998 27.8771L202.354 30.5222C204.717 30.9496 207.049 31.3504 209.412 31.671L209.443 31.6977ZM79.266 31.4038L81.8438 29.9076C80.8618 28.6252 80.3401 26.9954 80.3401 25.2053L80.3401 24.8046L77.2406 24.6977L77.2406 25.2053C77.2406 27.5298 77.9465 29.6672 79.266 31.4038ZM7.21158 29.9878C8.10153 28.1443 9.14493 26.3275 10.3111 24.5908L7.64117 23.2282C6.41366 25.0717 5.30893 26.9954 4.3883 28.9458L7.24231 29.9878L7.21158 29.9878ZM98.6299 29.213C98.6913 29.026 98.7526 28.8389 98.814 28.6252C99.0288 27.7702 99.1516 26.9153 99.1516 26.0336C99.1516 24.8313 98.9368 23.5756 98.5378 22.3198L95.5611 23.0679C95.8987 24.0832 96.0521 25.0718 96.0521 26.0336C96.0521 26.7015 95.9601 27.3962 95.8066 28.0374C95.7759 28.171 95.7453 28.3046 95.6839 28.4382L98.6606 29.213L98.6299 29.213ZM195.326 29.1328L196.063 26.5145C193.761 26.0069 191.491 25.4725 189.22 24.9382L188.36 27.5298C190.662 28.0909 192.964 28.6252 195.296 29.1328L195.326 29.1328ZM259.402 28.6252C261.673 27.8237 263.883 26.9153 266 25.9267L264.527 23.5489C262.502 24.5107 260.415 25.3657 258.236 26.1138L259.402 28.6252ZM181.548 25.7664L182.468 23.2015C180.198 22.587 177.957 21.9725 175.686 21.3313L174.735 23.8962C177.006 24.5374 179.277 25.1519 181.548 25.7664ZM167.953 21.9725L168.904 19.4076C166.634 18.7664 164.393 18.1252 162.123 17.5107L161.171 20.0756C163.442 20.6901 165.682 21.3313 167.953 21.9725ZM14.1776 19.5946C15.5893 17.9916 17.1237 16.4687 18.7502 15.0794L16.5713 13.1824C14.8528 14.6786 13.2264 16.2817 11.7227 17.9649L14.1776 19.6214L14.1776 19.5946ZM82.0586 19.4878C82.703 18.4725 83.4702 17.5908 84.3602 16.816C84.9739 16.3084 85.649 15.8275 86.3549 15.3733L84.5443 13.1824C83.7157 13.6901 82.9179 14.2779 82.2121 14.8924C81.1073 15.8275 80.1253 16.9496 79.3581 18.1786L82.0893 19.4878L82.0586 19.4878ZM154.389 18.2053L155.279 15.6137C152.978 14.9992 150.707 14.4115 148.405 13.8504L147.577 16.442C149.847 17.0031 152.118 17.5908 154.389 18.1786L154.389 18.2053ZM92.5844 17.9916L95.1008 16.4153C93.8119 14.8656 92.2162 13.3427 90.4363 11.9267L90.0681 11.6328L88.012 13.6634L88.3496 13.9305C90.0067 15.2397 91.4183 16.6023 92.6151 18.0183L92.5844 17.9916ZM140.764 14.8656L141.531 12.2473C139.199 11.7397 136.867 11.2588 134.534 10.8313L133.89 13.4763C136.192 13.9038 138.493 14.358 140.764 14.8656ZM92.3389 12.8084C94.3336 12.2206 96.5125 11.8198 98.9982 11.5259L98.5992 8.85419C95.8987 9.1748 93.5358 9.629 91.3569 10.2435L92.3389 12.8084ZM126.955 12.3275L127.446 9.65572C125.083 9.30839 122.689 9.04121 120.295 8.82747L119.958 11.4992C122.29 11.713 124.622 11.9801 126.924 12.3275L126.955 12.3275ZM23.9977 11.0985C25.839 9.89617 27.8029 8.80075 29.7976 7.83892L28.2939 5.46105C26.1765 6.47632 24.0897 7.65189 22.1257 8.93434L23.9977 11.0985ZM112.961 11.0985L113.084 8.39999C110.69 8.31984 108.266 8.29312 105.841 8.39999L105.934 11.0985C108.266 11.045 110.629 11.045 112.961 11.0985ZM82.5189 10.0298L84.2067 7.75877C82.1814 6.60991 80.0332 5.54121 77.793 4.63281L76.4734 7.06411C78.5602 7.91907 80.5856 8.90762 82.5189 10.003L82.5189 10.0298ZM36.0579 5.3809C38.1753 4.68625 40.4156 4.12517 42.6864 3.69769L42.042 1.05265C39.6484 1.50685 37.2547 2.09464 34.9838 2.84273L36.0579 5.3809ZM70.0598 4.89999L71.0111 2.3351C68.7095 1.69388 66.3159 1.18624 63.8916 0.812196L63.3392 3.45724C65.61 3.80456 67.8809 4.3122 70.0598 4.89999ZM49.5298 2.84273C51.8314 2.68243 54.1329 2.65571 56.4652 2.76258L56.6186 0.0641041C54.1943 -0.0427664 51.7393 -0.0160497 49.2842 0.144255L49.5298 2.84273Z" fill="#1E6A5D"/>
<path d="M32.8024 100.948L31.7284 98.4362L46.0595 93.8141L39.7379 81.711L42.5612 80.5889L50.2637 95.3637L32.8024 100.948Z" fill="#1E6A5D"/>
</g>
</svg>
