<svg width="21" height="20" viewBox="0 0 21 20" fill="none" xmlns="http://www.w3.org/2000/svg">
<path d="M8.99479 11.4998L7.20312 9.70817C7.05035 9.55539 6.8559 9.479 6.61979 9.479C6.38368 9.479 6.18924 9.55539 6.03646 9.70817C5.88368 9.86095 5.80729 10.0554 5.80729 10.2915C5.80729 10.5276 5.88368 10.7221 6.03646 10.8748L8.41146 13.2498C8.57812 13.4165 8.77257 13.4998 8.99479 13.4998C9.21701 13.4998 9.41146 13.4165 9.57812 13.2498L14.2865 8.5415C14.4392 8.38873 14.5156 8.19428 14.5156 7.95817C14.5156 7.72206 14.4392 7.52762 14.2865 7.37484C14.1337 7.22206 13.9392 7.14567 13.7031 7.14567C13.467 7.14567 13.2726 7.22206 13.1198 7.37484L8.99479 11.4998ZM10.1615 18.3332C9.00868 18.3332 7.92535 18.1143 6.91146 17.6765C5.89757 17.2387 5.01562 16.6451 4.26562 15.8957C3.51563 15.1457 2.92201 14.2637 2.48479 13.2498C2.04757 12.2359 1.82868 11.1526 1.82812 9.99984C1.82812 8.84706 2.04701 7.76373 2.48479 6.74984C2.92257 5.73595 3.51618 4.854 4.26562 4.104C5.01562 3.354 5.89757 2.76039 6.91146 2.32317C7.92535 1.88595 9.00868 1.66706 10.1615 1.6665C11.3142 1.6665 12.3976 1.88539 13.4115 2.32317C14.4253 2.76095 15.3073 3.35456 16.0573 4.104C16.8073 4.854 17.4012 5.73595 17.839 6.74984C18.2767 7.76373 18.4953 8.84706 18.4948 9.99984C18.4948 11.1526 18.2759 12.2359 17.8381 13.2498C17.4003 14.2637 16.8067 15.1457 16.0573 15.8957C15.3073 16.6457 14.4253 17.2396 13.4115 17.6773C12.3976 18.1151 11.3142 18.3337 10.1615 18.3332Z" fill="#25AE87"/>
</svg>
