<svg width="21" height="20" viewBox="0 0 21 20" fill="none" xmlns="http://www.w3.org/2000/svg">
<path d="M9.18473 11.4998L7.39307 9.70817C7.24029 9.55539 7.04584 9.479 6.80973 9.479C6.57362 9.479 6.37918 9.55539 6.2264 9.70817C6.07362 9.86095 5.99723 10.0554 5.99723 10.2915C5.99723 10.5276 6.07362 10.7221 6.2264 10.8748L8.6014 13.2498C8.76807 13.4165 8.96251 13.4998 9.18473 13.4998C9.40696 13.4998 9.6014 13.4165 9.76807 13.2498L14.4764 8.5415C14.6292 8.38873 14.7056 8.19428 14.7056 7.95817C14.7056 7.72206 14.6292 7.52762 14.4764 7.37484C14.3236 7.22206 14.1292 7.14567 13.8931 7.14567C13.657 7.14567 13.4625 7.22206 13.3097 7.37484L9.18473 11.4998ZM10.3514 18.3332C9.19862 18.3332 8.11529 18.1143 7.1014 17.6765C6.08751 17.2387 5.20557 16.6451 4.45557 15.8957C3.70557 15.1457 3.11196 14.2637 2.67473 13.2498C2.23751 12.2359 2.01862 11.1526 2.01807 9.99984C2.01807 8.84706 2.23696 7.76373 2.67473 6.74984C3.11251 5.73595 3.70612 4.854 4.45557 4.104C5.20557 3.354 6.08751 2.76039 7.1014 2.32317C8.11529 1.88595 9.19862 1.66706 10.3514 1.6665C11.5042 1.6665 12.5875 1.88539 13.6014 2.32317C14.6153 2.76095 15.4972 3.35456 16.2472 4.104C16.9972 4.854 17.5911 5.73595 18.0289 6.74984C18.4667 7.76373 18.6853 8.84706 18.6847 9.99984C18.6847 11.1526 18.4658 12.2359 18.0281 13.2498C17.5903 14.2637 16.9967 15.1457 16.2472 15.8957C15.4972 16.6457 14.6153 17.2396 13.6014 17.6773C12.5875 18.1151 11.5042 18.3337 10.3514 18.3332Z" fill="#25AE87"/>
</svg>
