<svg width="22" height="23" viewBox="0 0 22 23" fill="none" xmlns="http://www.w3.org/2000/svg">
<path opacity="0.5" d="M7.75 2.07813C7.6837 2.07813 7.62011 2.10446 7.57322 2.15135C7.52634 2.19823 7.5 2.26182 7.5 2.32813V7.33012C7.5 7.52904 7.42098 7.7198 7.28033 7.86045C7.13968 8.00111 6.94891 8.08012 6.75 8.08012H1.75C1.6837 8.08012 1.62011 8.10646 1.57322 8.15335C1.52634 8.20023 1.5 8.26382 1.5 8.33012V14.8301C1.5 14.9681 1.612 15.0801 1.75 15.0801H6.75C6.94891 15.0801 7.13968 15.1591 7.28033 15.2998C7.42098 15.4404 7.5 15.6312 7.5 15.8301V20.8311C7.5 20.9691 7.612 21.0811 7.75 21.0811H14.25C14.3163 21.0811 14.3799 21.0548 14.4268 21.0079C14.4737 20.961 14.5 20.8974 14.5 20.8311V15.8301C14.5 15.6312 14.579 15.4404 14.7197 15.2998C14.8603 15.1591 15.0511 15.0801 15.25 15.0801H20.25C20.3163 15.0801 20.3799 15.0538 20.4268 15.0069C20.4737 14.96 20.5 14.8964 20.5 14.8301V8.33012C20.5 8.26382 20.4737 8.20023 20.4268 8.15335C20.3799 8.10646 20.3163 8.08012 20.25 8.08012H15.25C15.0511 8.08012 14.8603 8.00111 14.7197 7.86045C14.579 7.7198 14.5 7.52904 14.5 7.33012V2.32913C14.5 2.26282 14.4737 2.19923 14.4268 2.15235C14.3799 2.10546 14.3163 2.07913 14.25 2.07913L7.75 2.07813ZM6 2.32813C6 1.36213 6.784 0.578125 7.75 0.578125H14.25C15.216 0.578125 16 1.36213 16 2.32813V6.58012H20.25C21.216 6.58012 22 7.36312 22 8.33012V14.8301C22 15.2943 21.8156 15.7394 21.4874 16.0676C21.1592 16.3958 20.7141 16.5801 20.25 16.5801H16V20.8311C16 21.2953 15.8156 21.7404 15.4874 22.0686C15.1592 22.3968 14.7141 22.5811 14.25 22.5811H7.75C7.28587 22.5811 6.84075 22.3968 6.51256 22.0686C6.18437 21.7404 6 21.2953 6 20.8311V16.5801H1.75C1.28587 16.5801 0.840752 16.3958 0.512563 16.0676C0.184375 15.7394 0 15.2943 0 14.8301V8.33012C0 7.36412 0.784 6.58012 1.75 6.58012H6V2.32813Z" fill="#27BBA2"/>
</svg>
