<svg width="22" height="22" viewBox="0 0 22 22" fill="none" xmlns="http://www.w3.org/2000/svg">
<path opacity="0.7" d="M15.1563 13.375H14.2181L13.8856 13.0544C15.0896 11.6579 15.7513 9.87508 15.75 8.03125C15.75 6.50463 15.2973 5.01229 14.4492 3.74295C13.601 2.4736 12.3955 1.48427 10.9851 0.900058C9.57467 0.315844 8.02269 0.162987 6.5254 0.460817C5.02811 0.758647 3.65276 1.49379 2.57327 2.57327C1.49379 3.65276 0.758647 5.02811 0.460817 6.5254C0.162987 8.02269 0.315844 9.57467 0.900058 10.9851C1.48427 12.3955 2.4736 13.601 3.74295 14.4492C5.01229 15.2973 6.50463 15.75 8.03125 15.75C9.94313 15.75 11.7006 15.0494 13.0544 13.8856L13.375 14.2181V15.1563L19.3125 21.0819L21.0819 19.3125L15.1563 13.375ZM8.03125 13.375C5.07438 13.375 2.6875 10.9881 2.6875 8.03125C2.6875 5.07438 5.07438 2.6875 8.03125 2.6875C10.9881 2.6875 13.375 5.07438 13.375 8.03125C13.375 10.9881 10.9881 13.375 8.03125 13.375Z" fill="#FAFAFA"/>
</svg>
