<svg width="308" height="322" viewBox="0 0 308 322" fill="none" xmlns="http://www.w3.org/2000/svg">
<path fill-rule="evenodd" clip-rule="evenodd" d="M80.0008 201.191C63.4065 201.917 48.2892 207.945 35.2092 218.064C19.8244 229.966 1.96748 243.049 0.96637 262.332C-0.0579681 282.063 14.3233 299.599 30.3642 311.389C44.3981 321.704 62.5948 322.108 80.0008 320.422C95.3727 318.933 108.177 311.461 120.778 302.633C137.355 291.019 161.075 282.332 162.917 262.332C164.788 242.012 145.491 226.163 128.944 213.961C114.885 203.594 97.5245 200.424 80.0008 201.191Z" fill="#26B390"/>
<path opacity="0.7" fill-rule="evenodd" clip-rule="evenodd" d="M61.4169 108.992C61.4299 108.848 61.3927 108.703 61.3115 108.583C61.2303 108.462 61.1102 108.373 60.9711 108.331C60.832 108.288 60.6825 108.294 60.5475 108.348C60.4125 108.403 60.3002 108.501 60.2295 108.628C54.0958 128.508 60.6835 145.981 68.4841 162.05C69.8175 177.976 69.7286 193.072 65.4077 199.109C56.5848 211.438 46.8064 214.044 38.8789 216.152C28.9766 218.789 21.8523 220.685 22.5095 238.488C22.6365 241.97 22.6397 244.344 22.5413 245.769C22.0428 244.062 21.4237 241.046 20.7729 237.222C18.9505 226.57 21.6936 214.598 26.7288 203.23C33.0023 189.064 42.8188 175.858 51.8099 167.298C57.55 161.825 59.312 156.421 59.0676 151.056C58.8231 145.741 56.6071 140.534 54.3561 135.326C50.0849 125.456 48.0742 115.669 48.3239 105.966C48.5356 96.216 50.9982 86.5516 55.7118 76.9727C58.3659 71.5565 61.1629 66.3682 63.3313 62.3163C66.0077 57.3496 67.8205 53.9909 67.0998 53.4528C66.3284 52.8703 62.0773 57.9985 51.2257 72.3479C48.2763 76.2383 46.054 78.2801 44.4951 78.9353C43.8792 79.1949 43.4062 79.2108 43.0792 79.0208C42.7522 78.8309 42.4855 78.3877 42.3267 77.7546C41.9045 76.0294 42.222 73.1203 43.2252 69.6667C54.226 31.8258 92.0349 9.78104 122.675 3.37083C133.39 1.1328 143.213 0.809912 150.687 2.39901C153.377 2.92193 155.966 3.86641 158.36 5.19735C157.24 5.01586 156.108 4.87235 154.963 4.76684C144.956 3.8425 134.047 5.7893 123.215 10.2939C99.0671 20.3381 75.275 43.13 62.6869 75.2697C57.7183 87.9793 55.8546 93.8165 57.6071 94.5003C59.2708 95.1334 63.8203 90.4199 71.8621 82.0597L73.2114 80.6574L75.1163 81.0309L74.3924 81.5374C74.322 81.5802 74.2609 81.6368 74.2129 81.7037C74.1649 81.7706 74.1309 81.8465 74.113 81.9268C74.0784 82.0869 74.1073 82.2542 74.1937 82.3935C74.2801 82.5328 74.4174 82.6333 74.5765 82.6739C76.0243 83.0094 77.7514 83.3608 79.6213 83.7406L80.1325 83.8451C77.918 86.2101 75.5532 88.4306 73.0526 90.4927C67.9253 94.8643 64.5505 97.7418 64.0965 106.691C63.8298 111.863 64.614 115.94 65.9728 118.052C66.6078 119.036 67.3792 119.635 68.2555 119.777C69.1317 119.92 70.0715 119.593 71.0049 118.726C72.5415 117.292 74.1797 114.244 75.6687 109.195C75.9322 113.626 76.3036 117.998 76.7608 122.373C77.3545 128.071 78.0816 133.721 78.8784 139.378C80.1484 148.533 82.0818 156.507 83.8692 160.286C84.5042 161.635 85.1709 162.502 85.8376 162.8C86.7266 163.186 87.4886 162.775 88.06 161.41C88.8093 159.657 89.3522 155.902 89.5395 149.603C94.689 155.32 103.906 162.813 115.24 167.89C123.996 171.812 134.019 174.3 144.419 173.436C165.392 171.695 170.888 159.508 176.672 146.691C178.806 141.961 180.981 137.14 183.975 132.784L184.155 132.525L184.181 132.484C190.092 123.908 190.708 122.987 190.245 110.486C190.236 110.324 190.165 110.172 190.047 110.061C189.929 109.95 189.772 109.888 189.61 109.888C162.306 111.398 161.843 102.256 161.516 95.9818C161.325 92.3762 161.179 89.5969 157.071 89.5906C150.721 89.5747 149.452 92.8384 147.994 96.5706C146.045 101.591 143.73 107.545 125.453 106.14C110.598 104.997 108.912 101.344 106.909 97.0042C106.058 95.1619 105.156 93.2056 103.286 91.2271C99.1433 86.846 90.1617 84.6523 82.4819 83.0569L82.9041 82.5567C91.0539 84.2851 98.7052 86.6276 105.341 92.3256C105.379 92.3605 105.423 92.3893 105.471 92.411C105.618 92.4805 105.787 92.4907 105.942 92.4394C106.097 92.3881 106.226 92.2793 106.303 92.1356L107.341 90.0591C108.582 87.5678 108.331 86.1908 108.703 86.3839C108.934 86.5042 108.442 86.7257 108.385 87.4886C108.225 89.515 108.204 91.5499 108.322 93.5791C108.607 97.9191 109.814 100.683 112.592 102.42C115.284 104.105 119.421 104.75 125.634 104.896C127.167 104.934 128.593 105.01 129.898 105.08C137.286 105.478 140.959 105.678 145.378 97.7798C146.105 96.4819 146.832 95.2474 147.509 94.073C149.652 90.4041 151.299 87.5804 151.61 85.2664C152.172 81.0468 148.594 78.8151 136.371 77.1911C128.847 76.194 123.672 75.8268 119.418 76.4662C115.097 77.0993 111.719 78.7771 107.801 81.8477C106.61 82.7859 105.471 83.7877 104.388 84.8486L103.283 85.9185C103.121 85.9185 103.521 84.8296 103.715 82.0028V81.835C103.722 81.6752 103.667 81.5188 103.563 81.3972C103.459 81.2757 103.312 81.198 103.153 81.1797C97.3749 80.6162 91.692 79.6444 86.0091 78.5713C86.2377 78.2548 86.4631 77.9382 86.6917 77.5963C89.0188 77.5267 90.9904 78.1598 93.1175 78.8404C95.9748 79.7616 99.1338 80.7682 103.702 80.4232C104.855 80.3345 105.925 79.7584 107.372 78.9987C111.751 76.6783 119.561 72.5346 141.546 76.6973C144.696 77.2924 147.115 78.1155 149.125 79.4703C151.134 80.8252 152.747 82.715 154.306 85.4595C154.36 85.5525 154.436 85.6303 154.528 85.6857C154.62 85.7411 154.725 85.7722 154.833 85.7761L160.909 86.0483C161.025 86.0528 161.14 86.0256 161.241 85.9698C161.342 85.914 161.426 85.8317 161.484 85.7318C163.529 82.3921 168.059 80.2965 173.425 79.2202C178.038 78.3562 182.749 78.1272 187.426 78.5397L187.572 79.8787C183.907 79.6469 180.23 79.7338 176.58 80.1383C172.107 80.6606 168.091 81.7369 165.665 83.4842C163.443 85.0923 162.529 88.4066 162.491 91.9964C162.427 96.3521 163.63 101.176 165.243 103.709C166.637 105.909 171.355 107.435 176.587 108.289C183.159 109.362 190.638 109.41 193.185 108.397C195.947 107.295 197.928 105.045 199.306 102.227C200.95 98.8592 201.738 94.6649 201.973 90.6763C202.227 86.3997 202.335 83.8134 201.3 81.9711C200.265 80.1288 198.125 79.1506 193.959 78.2389C192.178 77.8533 190.376 77.5701 188.562 77.3906C187.149 64.6208 183.67 38.6254 174.51 27.1408C171.793 23.7284 168.596 21.5695 164.837 21.3353C166.015 17.8943 166.202 14.8649 165.548 12.2502C165.111 10.5025 164.278 8.87813 163.113 7.50186C169.664 9.2842 175.657 12.6905 180.533 17.4037C190.692 27.2358 196.994 43.5605 196.585 67.2893C196.563 68.5999 196.499 69.5527 196.455 70.208C196.398 71.0943 196.369 71.5217 196.572 71.8351C196.921 72.3732 197.261 72.2561 197.912 72.0313C198.482 71.824 199.076 71.6879 199.68 71.6261C201.376 71.452 203.357 71.9902 205.395 73.1456C207.754 74.5379 209.854 76.3264 211.602 78.432C215.227 82.658 216.732 83.8135 217.282 83.3608C217.831 82.9081 217.323 81.7464 216.72 80.2934C216.202 79.1516 215.777 77.9702 215.45 76.7606C215.355 76.4142 215.348 76.0497 215.431 75.7002C215.605 75.1019 216.269 74.7948 217.247 74.6999C218.415 74.5827 219.967 74.779 221.691 75.1652C227.044 76.3618 233.918 79.3722 236.429 80.8822C237.552 81.5282 238.719 82.0952 239.921 82.5789C240.899 82.9736 241.853 83.4238 242.779 83.9274C244.849 85.105 245.858 84.8771 245.699 85.1651C245.588 85.3551 245.655 84.9847 245.433 85.0005C244.331 85.0797 242.429 85.2158 241.305 86.8017C241.047 87.1588 240.9 87.5838 240.883 88.0236C240.845 88.9258 241.337 89.9229 242.302 90.8346C243.434 91.8457 244.757 92.6197 246.195 93.1106C247.767 93.6728 249.403 94.0376 251.065 94.1964C251.354 94.4979 251.604 94.8352 251.808 95.1999C253.04 97.4068 254.114 99.698 255.021 102.056C255.964 104.555 256.765 107.104 257.421 109.692C257.463 109.843 257.561 109.974 257.695 110.058C257.829 110.141 257.989 110.172 258.145 110.144C258.989 109.943 259.858 109.863 260.726 109.907C261.592 109.997 262.445 110.189 263.266 110.48C263.367 110.517 263.476 110.529 263.583 110.515C263.746 110.489 263.892 110.401 263.991 110.27C264.089 110.139 264.133 109.975 264.113 109.812C263.829 107.951 263.713 106.069 263.764 104.187C263.833 102.31 264.097 100.445 264.551 98.6218C264.58 98.4964 264.569 98.3652 264.521 98.2459C264.473 98.1266 264.389 98.0247 264.282 97.9539C263.238 97.3112 262.26 96.5691 261.361 95.738C260.481 94.8907 259.691 93.9563 259.002 92.9492C258.934 92.8547 258.841 92.7808 258.733 92.7356C258.626 92.6903 258.508 92.6755 258.392 92.6928C256.165 93.0733 253.899 93.1796 251.646 93.0093C250.503 91.9426 249.068 91.2335 247.88 90.6478C247.403 90.4259 246.938 90.1787 246.487 89.9071C246.093 89.657 245.769 89.4354 245.509 89.2455C245.807 89.3057 246.166 89.3911 246.579 89.5019C246.993 89.6155 247.42 89.6751 247.849 89.6792C248.534 89.6957 249.207 89.4963 249.773 89.1094C250.36 88.6789 250.776 88.0556 250.947 87.3494C251.003 87.1416 251.044 86.93 251.068 86.7162C253.878 86.8239 255.96 86.7447 257.63 86.6846C262.075 86.5168 263.453 86.4662 268.25 90.689C269.057 91.3981 269.498 91.7843 269.895 92.1262C272 93.9527 273.035 94.8517 273.463 95.8457C273.892 96.8396 273.781 98.0204 273.641 100.426C273.597 101.116 273.546 101.901 273.495 102.86C273.422 104.317 273.352 105.846 273.279 107.378C272.962 114.025 272.666 120.692 271.692 127.137C268.317 149.381 262.247 160.821 256.291 165.019C253.979 166.646 251.703 167.156 249.623 166.773C247.544 166.39 245.652 165.108 244.115 163.148C240.505 158.545 238.915 150.296 241.537 141.167C245.785 126.368 254.354 124.557 254.751 124.472H254.802C254.934 124.414 255.042 124.312 255.109 124.185C255.176 124.057 255.197 123.91 255.169 123.769C255.14 123.628 255.065 123.5 254.954 123.407C254.844 123.315 254.705 123.262 254.56 123.259H254.494C253.944 123.329 249.414 123.813 237.137 121.512C233.273 120.787 230.822 119.869 229.673 118.884C229.213 118.492 228.997 118.115 229.016 117.764C229.035 117.412 229.305 116.985 229.816 116.558C231.206 115.393 234.127 114.279 238.429 113.408C239.381 113.218 243.95 112.003 246.465 110.876C247.047 110.646 247.589 110.325 248.071 109.926C248.706 109.315 248.744 108.748 247.944 108.267C247.553 108.033 246.811 107.859 245.614 107.77C244.148 105.939 242.893 103.949 241.874 101.838C240.877 99.7924 240.156 97.6241 239.731 95.3898C239.716 95.3041 239.684 95.2224 239.635 95.1503C239.586 95.0782 239.522 95.0174 239.448 94.972C237.319 93.5804 235.349 91.9617 233.572 90.1445C233.127 89.6733 232.646 89.2373 232.133 88.8403C227.882 85.8964 224.92 84.3832 223.409 83.9971C222.561 83.7818 221.987 83.8989 221.707 84.3136C221.428 84.7283 221.533 85.3012 222.047 85.9977C222.958 87.2259 225.415 89.331 229.549 91.9869C231.603 93.3101 233.584 94.6428 235.416 96.9758C237.175 99.217 238.82 102.405 240.302 107.422C238.035 107.583 236.353 108.397 234.524 109.283C233.626 109.717 232.692 110.17 231.644 110.55C225.654 104.535 225.044 103.009 224.612 101.93C224.015 100.426 223.73 99.7139 213.672 92.0977C210.97 90.0527 208.516 87.4253 206.132 84.8707C205.522 84.2186 204.916 83.5697 204.293 82.9144C204.209 82.8332 204.103 82.7769 203.988 82.752C203.874 82.727 203.754 82.7343 203.643 82.773C203.532 82.8117 203.434 82.8804 203.36 82.9713C203.286 83.0622 203.239 83.1718 203.223 83.288L202.855 87.4602C202.848 87.5554 202.863 87.651 202.898 87.7398C202.933 87.8286 202.988 87.9083 203.058 87.973C214.488 100.455 215.58 103.168 216.878 106.428C217.608 108.356 218.524 110.209 219.612 111.961C223.269 117.951 225.371 122.525 225.765 125.041C225.892 125.839 225.85 126.355 225.638 126.548C225.425 126.741 225.031 126.662 224.352 126.368C222.295 125.475 218.771 122.541 213.659 117.099C211.119 114.408 209.57 111.401 207.903 108.204C206.347 105.216 204.706 102.056 202.096 98.7706C201.992 98.6447 201.843 98.5639 201.68 98.545C201.518 98.5261 201.354 98.5706 201.223 98.6693C201.125 98.7449 201.053 98.8488 201.017 98.9669C200.521 100.65 199.859 102.28 199.039 103.832C198.228 105.325 197.107 106.628 195.75 107.653C195.656 107.722 195.584 107.817 195.541 107.926C195.499 108.034 195.489 108.153 195.512 108.267C195.829 109.765 196.026 111.17 196.233 112.512C196.89 116.852 197.455 120.562 200.433 124.595C205.878 131.968 206.147 135.409 206.433 138.941C206.836 144.006 207.255 149.274 221.472 165.345C229.038 173.892 231.749 179.789 231.206 183.724C230.832 186.418 228.851 188.207 225.825 189.311C222.65 190.467 218.377 190.894 213.589 190.809C195.766 190.527 171.215 183.55 170.205 182.464C170.11 182.363 170.386 182.566 170.472 182.486C171.212 181.799 173.123 180.783 175.552 179.492C182.666 175.693 194.08 169.628 195.461 161.41C195.737 159.761 195.483 156.662 195.144 152.597C194.604 146.089 193.851 137.032 194.737 127.64C194.867 126.292 195.032 124.953 195.188 123.69C195.804 118.679 196.271 114.905 194.251 109.157C194.198 109.035 194.108 108.933 193.994 108.865C193.879 108.797 193.746 108.766 193.614 108.778C193.481 108.789 193.355 108.842 193.254 108.929C193.153 109.016 193.082 109.132 193.051 109.261C192.153 114.643 191.832 118.321 191.575 121.29C190.905 129.014 190.667 131.774 181.498 146.57C180.317 148.47 179.276 151.591 178.126 155.117C176.739 159.324 175.155 164.123 172.939 167.988C172.88 168.113 172.863 168.253 172.891 168.388C172.92 168.523 172.991 168.645 173.096 168.736C173.2 168.826 173.331 168.881 173.469 168.89C173.606 168.9 173.744 168.864 173.86 168.789C176.949 166.671 179.384 164.937 181.558 162.93C183.465 161.168 185.162 159.194 186.616 157.045C186.994 165.25 185.441 166.149 177.212 170.901L177.177 170.919C174.225 172.626 168.634 174.041 162.119 175.69C146.178 179.723 124.796 185.133 121.329 200.065C119.834 206.5 121.24 212.306 124.574 216.956C126.469 219.559 128.857 221.766 131.603 223.455C134.531 225.262 137.74 226.572 141.099 227.333C146.753 228.608 152.631 228.517 158.243 227.067C157.818 229.395 157.633 231.76 157.69 234.126C157.922 240.574 156.516 245.582 154.039 249.121C152.703 251.058 150.918 252.644 148.836 253.746C146.773 254.817 144.493 255.406 142.168 255.468C137.724 255.626 132.796 254.091 128.088 250.818C118.564 244.202 109.833 235.921 104.036 230.422C99.8195 226.424 97.0733 223.822 96.159 224.385C94.8319 225.202 99.8894 233.667 114.287 256.933C114.301 256.956 114.317 256.977 114.335 256.997C136.333 285.129 145.68 295.771 151.182 291.501C154.992 288.541 156.512 278.294 158.992 261.631C160.494 251.558 162.344 239.115 165.237 224.541C166.921 223.745 168.548 222.836 170.107 221.818C163.122 246.095 174.552 251.235 192.093 259.13C195.505 260.666 199.153 262.296 202.925 264.195C203.058 264.246 203.204 264.251 203.341 264.21C203.477 264.168 203.595 264.081 203.676 263.964C203.757 263.847 203.796 263.707 203.787 263.565C203.778 263.423 203.722 263.288 203.627 263.182C200.839 260.602 198.264 258.364 195.902 256.313C186.695 248.298 180.695 243.097 176.412 229.681C184.203 238.099 192.004 243.097 200.109 243.948C208.878 244.87 217.942 240.944 227.651 231.261C227.735 231.166 227.79 231.047 227.806 230.921C227.822 230.795 227.8 230.666 227.742 230.553C227.684 230.439 227.593 230.346 227.481 230.285C227.369 230.224 227.241 230.198 227.114 230.21L225.285 230.432C213.316 231.913 197.477 233.873 193.81 219.07C190.953 207.586 187.286 201.369 183.368 198.833C182.248 198.072 180.956 197.6 179.608 197.459C178.26 197.318 176.898 197.513 175.644 198.026C173.158 198.976 170.742 200.957 168.529 203.61C165.637 207.092 163.078 211.717 161.17 216.62C151.518 216.443 145.931 214.993 143.391 212.876C141.108 210.976 141.53 208.403 143.762 205.744C146.175 202.866 150.607 199.9 156.074 197.444C169.726 191.318 189.696 188.431 200.712 198.077C207.783 204.268 206.938 210.422 206.541 213.328C206.351 214.74 206.224 215.592 207.138 215.794C207.957 215.981 209.583 214.721 213.7 211.524C216.24 209.545 219.786 206.801 224.495 203.293C232.749 197.117 238.527 198.301 242.683 203.832C250.081 213.673 252.716 236.902 255.065 257.696C256.284 268.459 257.43 278.589 259.135 285.911C263.069 302.831 268.145 310.434 274.178 310.118C280.124 309.801 286.836 301.634 294.16 287.009C296.065 283.211 296.436 280.308 296.887 276.788C297.617 271.064 298.57 263.619 307.027 247.456C307.072 247.369 307.095 247.273 307.095 247.176C307.095 247.078 307.072 246.982 307.027 246.896C297.563 225.664 286.937 205.003 276.311 184.348C273.323 178.539 270.336 172.73 267.202 166.567C267.112 166.452 266.984 166.372 266.841 166.34C266.697 166.308 266.548 166.327 266.417 166.393C266.286 166.459 266.182 166.568 266.122 166.702C266.063 166.836 266.052 166.986 266.091 167.127C268.996 172.825 272.101 178.874 275.206 184.911C285.785 205.487 296.366 226.047 305.783 247.149C297.351 263.325 296.389 270.846 295.649 276.633C295.214 280.032 294.858 282.818 293.039 286.446C285.921 300.669 279.556 308.605 274.108 308.886C268.749 309.168 264.113 301.865 260.342 285.642C258.653 278.38 257.51 268.298 256.294 257.567C253.922 236.614 251.268 213.208 243.664 203.094C239.051 196.959 232.724 195.595 223.739 202.309C218.834 205.978 215.399 208.64 212.923 210.565C209.135 213.502 207.643 214.661 207.398 214.607C207.154 214.553 207.665 214.224 207.763 213.512C208.189 210.4 209.091 203.794 201.519 197.165C190.089 187.146 169.542 190.052 155.55 196.332C149.918 198.865 145.324 201.945 142.794 204.965C140.079 208.203 139.638 211.385 142.581 213.828C145.264 216.076 150.972 217.627 160.678 217.849C159.744 220.407 159.002 223.031 158.455 225.699C152.874 227.236 146.998 227.377 141.349 226.107C138.127 225.379 135.048 224.123 132.238 222.391C129.626 220.789 127.354 218.692 125.551 216.218C122.421 211.847 121.107 206.383 122.507 200.321C125.802 186.139 146.762 180.834 162.386 176.88C168.989 175.212 174.656 173.775 177.768 171.98L177.799 171.961C187.21 166.529 188.441 165.817 187.714 155.086C187.699 154.959 187.645 154.84 187.561 154.745C187.476 154.649 187.365 154.581 187.241 154.55C187.117 154.518 186.987 154.525 186.867 154.568C186.747 154.612 186.643 154.691 186.568 154.794C184.947 157.45 182.97 159.873 180.692 161.996C178.955 163.563 177.116 165.013 175.187 166.336C176.863 162.854 178.146 158.976 179.295 155.491C180.444 152.005 181.444 148.982 182.54 147.213C191.867 132.161 192.115 129.324 192.801 121.388C193.01 118.964 193.264 116.051 193.836 112.164C194.826 116.279 194.432 119.492 193.934 123.531C193.785 124.734 193.616 126.007 193.486 127.523C192.588 137.042 193.343 146.149 193.886 152.696C194.204 156.684 194.467 159.707 194.204 161.201C192.934 168.818 181.844 174.715 174.939 178.393C172.428 179.729 170.453 180.78 169.599 181.559C168.926 182.192 168.77 182.752 169.281 183.29C170.342 184.427 195.471 191.742 213.554 192.027C218.488 192.103 222.923 191.67 226.254 190.445C229.714 189.178 231.994 187.08 232.438 183.857C233.029 179.58 230.238 173.347 222.403 164.493C208.462 148.735 208.062 143.683 207.675 138.811C207.379 135.101 207.09 131.49 201.436 123.832C198.639 120.034 198.099 116.475 197.461 112.297C197.274 111.047 197.074 109.746 196.81 108.369C198.167 107.287 199.296 105.949 200.131 104.431C200.819 103.16 201.391 101.831 201.839 100.458C203.97 103.307 205.424 106.111 206.805 108.767C208.522 112.028 210.11 115.114 212.761 117.938C217.999 123.516 221.65 126.545 223.872 127.498C225.054 128.011 225.927 127.979 226.498 127.457C227.07 126.934 227.206 126.077 227.012 124.845C226.593 122.173 224.434 117.435 220.695 111.309C219.64 109.618 218.754 107.828 218.047 105.966C216.71 102.607 215.596 99.8057 204.138 87.2892L204.357 84.7568L205.236 85.7064C207.652 88.2927 210.135 90.9517 212.938 93.0726C222.72 100.477 222.961 101.088 223.476 102.379C223.952 103.576 224.634 105.288 231.057 111.695C231.14 111.775 231.243 111.83 231.354 111.856C231.466 111.881 231.583 111.876 231.692 111.841C232.847 111.423 233.975 110.934 235.07 110.379C236.975 109.454 238.712 108.615 241.128 108.615C241.184 108.613 241.241 108.604 241.296 108.59C241.453 108.542 241.585 108.436 241.665 108.293C241.745 108.15 241.766 107.982 241.725 107.824C240.137 102.196 238.34 98.6662 236.4 96.1939C234.461 93.7216 232.371 92.3034 230.225 90.9232C226.228 88.3528 223.876 86.368 223.053 85.2411C222.885 85.0164 222.701 85.0512 222.736 84.991C222.774 84.9341 222.818 85.1145 223.104 85.1873C224.495 85.5418 227.308 86.9917 231.425 89.8438C231.877 90.2005 232.301 90.5899 232.695 91.0087C234.474 92.8242 236.439 94.4476 238.559 95.852C239.011 98.1034 239.748 100.288 240.753 102.354C241.85 104.628 243.21 106.767 244.804 108.726C244.858 108.799 244.927 108.86 245.008 108.902C245.088 108.945 245.177 108.969 245.268 108.973C245.847 108.993 246.423 109.066 246.988 109.192C246.659 109.401 246.312 109.583 245.953 109.736C243.518 110.828 239.093 112.006 238.185 112.189C233.67 113.104 230.565 114.31 229.016 115.602C228.228 116.26 227.809 116.966 227.771 117.694C227.733 118.422 228.089 119.163 228.86 119.821C230.171 120.942 232.816 121.958 236.905 122.724C244.023 124.06 248.611 124.465 251.344 124.557C248.131 126.406 243.223 130.768 240.337 140.822C237.6 150.356 239.308 159.027 243.134 163.908C244.855 166.105 247.011 167.548 249.398 167.988C251.786 168.428 254.395 167.862 256.995 166.029C263.193 161.663 269.482 149.961 272.92 127.305C273.901 120.825 274.212 114.098 274.508 107.413C274.574 105.928 274.644 104.446 274.724 102.902C274.768 102.018 274.819 101.202 274.866 100.483C275.035 97.8811 275.117 96.5579 274.59 95.336C274.063 94.1141 272.946 93.1201 270.698 91.1702C270.117 90.6668 269.466 90.1034 269.057 89.7425C263.885 85.1905 262.389 85.2443 257.573 85.4279C255.814 85.4912 253.598 85.5767 250.544 85.4279H250.465C250.296 85.4279 250.135 85.4946 250.016 85.6133C249.897 85.732 249.83 85.8931 249.83 86.061C249.833 86.3864 249.795 86.7108 249.716 87.0265C249.618 87.4529 249.373 87.8316 249.023 88.0964C248.667 88.3314 248.247 88.4499 247.82 88.4351C247.498 88.4311 247.178 88.3854 246.868 88.299C245.703 87.9825 244.871 87.8527 244.398 87.897C244.228 87.8928 244.061 87.9389 243.918 88.0296C243.775 88.1203 243.662 88.2514 243.594 88.4062C243.526 88.561 243.506 88.7325 243.536 88.8989C243.566 89.0653 243.645 89.219 243.763 89.3405C244.045 89.7203 244.715 90.2553 245.791 90.9486C246.281 91.2445 246.787 91.514 247.306 91.7558C247.827 92.0122 248.398 92.2939 248.963 92.62C248.158 92.4504 247.365 92.224 246.592 91.9425C245.315 91.508 244.138 90.8259 243.128 89.9356C242.429 89.2708 242.071 88.6124 242.093 88.0679C242.102 87.8694 242.169 87.6779 242.286 87.5171C243.08 86.4092 244.614 86.2984 245.503 86.2351C246.112 86.1908 246.541 86.1591 246.772 85.7729C247.15 85.1145 246.274 84.4909 243.388 82.8448C242.423 82.3182 241.429 81.8468 240.41 81.433C239.269 80.9705 238.161 80.4289 237.096 79.8122C234.518 78.2643 227.47 75.1747 221.983 73.9496C220.136 73.5349 218.45 73.3165 217.142 73.459C215.643 73.6046 214.602 74.1807 214.253 75.3583C214.114 75.9036 214.114 76.4749 214.253 77.0202C214.597 78.3042 215.044 79.5587 215.589 80.7714C215.999 81.7622 216.653 82.2845 216.491 82.4206C216.421 82.4808 215.586 81.1544 212.567 77.6248C210.723 75.4107 208.51 73.5312 206.024 72.0693C203.744 70.7841 201.509 70.1921 199.557 70.3916C198.907 70.4553 198.268 70.5956 197.652 70.8094C197.668 70.6796 197.687 70.5087 197.699 70.2839C197.744 69.6508 197.804 68.7012 197.829 67.3083C198.245 43.2028 191.797 26.5742 181.403 16.5141C175.859 11.1635 168.935 7.4509 161.402 5.7893C158.83 3.63674 155.271 2.10462 150.972 1.19294C143.353 -0.430978 133.333 -0.111256 122.45 2.16476C91.4603 8.64145 53.1973 30.9711 42.0473 69.309C40.9838 72.9683 40.6536 76.1085 41.1298 78.0395C41.3711 79.0082 41.8124 79.7141 42.4696 80.0908C43.1268 80.4675 43.984 80.4896 44.9904 80.0655C46.7397 79.331 49.1431 77.1627 52.229 73.0854C62.5376 59.4736 66.3569 54.4246 66.3696 54.4341C66.503 54.5354 64.6267 57.3116 62.2424 61.7148C60.0486 65.792 57.2325 71.012 54.5847 76.4156C49.8204 86.1401 47.3175 95.9775 47.0763 105.928C46.8434 115.804 48.8912 125.762 53.2195 135.801C55.4419 140.907 57.6008 146.013 57.8357 151.094C58.0643 156.124 56.3943 161.204 50.9622 166.383C41.8791 175.044 31.9514 188.396 25.6113 202.714C20.4903 214.284 17.6996 226.497 19.5791 237.415C20.3443 241.891 21.0649 245.291 21.6237 246.851C21.8841 247.586 22.192 248.029 22.5413 248.136C23.1286 248.32 23.5255 247.95 23.6969 246.956C23.9064 245.753 23.9509 243.043 23.7826 238.444C23.1667 221.631 29.8909 219.84 39.2376 217.352C47.3524 215.19 57.3722 212.524 66.4585 199.827C70.6715 193.936 71.0525 180.046 69.9826 165.025C70.7678 166.595 71.552 168.154 72.3351 169.701C85.5106 195.782 96.8416 218.213 50.9083 241.242C33.5325 249.957 24.3985 258.336 21.6841 264.464C20.5157 267.101 20.503 269.371 21.5031 271.131C22.5031 272.891 24.4842 274.078 27.3162 274.585C34.177 275.813 46.3143 273.002 61.655 264.078L61.69 264.056C76.2148 255.594 85.2916 243.11 89.7204 228.918C94.6255 213.189 93.8128 195.364 88.3648 178.602C83.7518 164.493 78.0371 150.619 72.3224 136.792C69.3476 129.562 66.376 122.341 63.5758 115.114C63.5098 114.989 63.4035 114.89 63.2741 114.832C63.1447 114.774 62.9995 114.76 62.8618 114.794C62.724 114.828 62.6016 114.907 62.5141 115.019C62.4266 115.13 62.379 115.267 62.3789 115.409C62.6456 117.669 63.1631 121.088 63.8012 125.298C65.1346 134.089 66.9951 146.352 68.1539 158.488C61.1312 143.481 55.788 127.203 61.4074 108.992H61.4169ZM73.4114 169.137C72.17 166.684 70.916 164.199 69.6873 161.676C68.5793 148.435 66.5125 134.715 65.0426 125.105C64.7854 123.408 64.5473 121.838 64.3378 120.426C66.5601 126.039 68.8746 131.645 71.1858 137.257C76.8688 151.059 82.5708 164.911 87.1457 178.982C92.5175 195.506 93.3239 213.069 88.495 228.551C84.1582 242.48 75.2591 254.705 61.0232 262.995H60.9883C45.9238 271.761 34.1071 274.54 27.5003 273.356C25.0493 272.916 23.3572 271.929 22.5508 270.507C21.7444 269.086 21.7888 267.209 22.7857 264.952C25.3986 259.045 34.342 250.909 51.4321 242.337C98.4766 218.738 86.8853 195.804 73.4114 169.118V169.137ZM22.8524 246.937C22.9444 246.972 22.9857 246.987 22.8714 246.953C22.8714 246.953 22.8714 246.953 22.8524 246.937ZM160.789 6.93206C162.523 8.39367 163.758 10.3575 164.322 12.5509C164.957 15.0485 164.732 17.9766 163.519 21.3384C160.979 21.4777 158.233 22.4622 155.204 24.4786C157.217 20.2526 157.398 18.0842 156.23 17.4638C152.617 15.5392 133.19 34.0544 118.802 47.7643C113.903 52.4335 109.595 56.5392 106.737 59.059C110.998 51.3857 113.087 46.7355 113.611 44.3265C114.208 41.5725 113.262 40.9616 111.246 41.8859C109.874 42.519 107.811 44.1999 105.36 46.5266C96.5209 54.9248 82.3676 71.9459 78.2308 77.4476C78.1353 77.5802 78.0948 77.7444 78.1179 77.906C78.141 78.0676 78.2258 78.2141 78.3546 78.3149C78.4312 78.3707 78.5189 78.4096 78.6117 78.4289L79.2054 78.5428C78.3832 78.9733 77.5164 79.4767 76.5989 80.0623C75.4972 79.8502 74.3765 79.6349 73.1066 79.3849C72.9962 79.3638 72.8822 79.3724 72.7763 79.4096C72.6703 79.4469 72.5761 79.5115 72.5034 79.5969L70.9509 81.2114C63.271 89.1917 58.9342 93.7026 58.0421 93.3575C57.2452 93.041 59.1691 87.6437 63.8266 75.7318C76.2719 43.9245 99.8069 21.3796 123.672 11.4524C134.324 7.0207 145.032 5.12138 154.833 6.01406C156.827 6.19581 158.808 6.50242 160.763 6.93206H160.789ZM162.986 22.6901C161.297 26.666 158.278 31.2086 153.696 36.3209C145.616 45.3363 142.562 48.2328 142.099 47.8213C141.753 47.5047 142.997 44.3614 144.515 40.5152C145.296 38.5368 146.143 36.3842 146.861 34.3076C147.442 32.6236 147.245 31.7087 146.41 31.4238C143.892 30.5596 132.463 41.4048 121.837 51.487C116.319 56.7259 111.02 61.7528 107.392 64.7822L87.0949 74.912C86.9956 74.9621 86.9113 75.0375 86.8504 75.1304C86.5732 75.5525 86.298 75.9682 86.0249 76.3776C84.327 76.527 82.6654 76.9548 81.1071 77.6438L79.8372 77.3969C84.5995 71.2336 97.8226 55.4091 106.226 47.4224C108.582 45.1812 110.538 43.5763 111.776 43.0097C112.373 42.7343 112.63 43.0097 112.411 44.0606C111.849 46.65 109.331 52.0536 104.026 61.373C103.969 61.496 103.953 61.634 103.981 61.7667C104.009 61.8994 104.078 62.0197 104.179 62.1101C104.281 62.2004 104.408 62.256 104.544 62.2686C104.679 62.2812 104.815 62.2502 104.931 62.1802C107.236 60.5024 112.887 55.1179 119.665 48.657C133.777 35.2098 152.833 17.0523 155.652 18.5527C156.328 18.9136 155.617 21.2023 152.953 26.1754C152.89 26.3001 152.87 26.4421 152.896 26.5794C152.922 26.7167 152.993 26.8416 153.098 26.9344C153.203 27.0273 153.335 27.083 153.475 27.0929C153.615 27.1027 153.754 27.0662 153.871 26.9889C157.239 24.3172 160.268 22.9718 162.992 22.6869L162.986 22.6901ZM154.62 37.1471C159.484 31.7214 162.637 26.8813 164.341 22.6331C167.935 22.7218 170.964 24.7097 173.523 27.9164C182.413 39.0686 185.864 64.5353 187.283 77.2798C182.57 76.8864 177.825 77.1302 173.177 78.0047C167.643 79.1126 162.919 81.2969 160.598 84.7979L155.201 84.5574C153.595 81.8002 151.902 79.8629 149.804 78.451C147.645 76.9949 145.08 76.1149 141.759 75.4881C119.342 71.2463 111.281 75.5166 106.772 77.9097C105.471 78.603 104.48 79.1253 103.598 79.1949C99.2703 79.5115 96.2479 78.5618 93.489 77.6723C91.4952 77.0392 89.6315 76.4377 87.533 76.3459L87.7997 75.9376L107.976 65.8807C108.034 65.8565 108.089 65.8234 108.138 65.7825C111.785 62.7373 117.126 57.6661 122.691 52.386C133.05 42.5538 144.197 31.9778 146.004 32.5982C146.077 32.6236 145.981 33.0319 145.686 33.9056C144.965 35.9917 144.127 38.1126 143.359 40.0626C141.667 44.3487 140.283 47.8593 141.273 48.7425C142.334 49.6921 145.931 46.8432 154.623 37.1471H154.62ZM85.0566 77.7609L84.6566 78.3181L83.5391 78.1028C84.038 77.9602 84.5447 77.8461 85.0566 77.7609ZM83.8375 79.4228C83.3676 80.0433 82.903 80.6331 82.4438 81.1924C81.1135 80.917 79.7706 80.6542 78.4213 80.3947C79.3437 79.85 80.2979 79.3606 81.2786 78.929L83.8375 79.4228ZM81.5421 82.2718L81.1071 82.772L79.888 82.5251C78.6181 82.2623 77.3863 82.0154 76.2465 81.7685C76.4529 81.6261 76.6592 81.4899 76.8624 81.357C78.4498 81.6577 79.996 81.9553 81.5421 82.2718ZM73.8781 91.4519C76.6129 89.2038 79.1826 86.7632 81.5675 84.149C89.222 85.7318 98.3941 87.8558 102.404 92.1008C104.131 93.9305 104.991 95.7918 105.801 97.5455C107.972 102.246 109.798 106.2 125.383 107.4C144.565 108.862 147.064 102.439 149.153 97.0264C150.442 93.7152 151.566 90.8219 157.071 90.8346C160.008 90.8346 160.125 93.1075 160.278 96.0482C160.63 102.781 161.148 112.56 189.051 111.161C189.457 122.664 188.781 123.664 183.184 131.787L183.152 131.828L182.974 132.088C179.895 136.554 177.704 141.414 175.552 146.181C169.926 158.656 164.576 170.514 144.331 172.195C134.171 173.04 124.329 170.612 115.757 166.754C103.813 161.41 94.2573 153.325 89.4665 147.602C89.4097 147.532 89.3382 147.475 89.257 147.436C89.1758 147.397 89.0869 147.376 88.9966 147.374C88.832 147.374 88.6737 147.438 88.5553 147.552C88.4368 147.666 88.3674 147.821 88.3616 147.985C88.2251 155.079 87.6949 159.163 86.9393 160.929C86.6948 161.505 86.498 161.733 86.3456 161.667C85.971 161.505 85.517 160.837 85.0058 159.767C83.2692 156.092 81.3929 148.254 80.123 139.217C79.3261 133.566 78.599 127.919 78.0117 122.256C77.4244 116.593 76.9672 110.92 76.7164 105.2C76.7013 105.057 76.6382 104.924 76.5375 104.822C76.4367 104.72 76.3041 104.655 76.1615 104.638C76.0188 104.62 75.8745 104.652 75.7521 104.727C75.6298 104.802 75.5365 104.916 75.4877 105.051C73.8051 112.202 71.9034 116.213 70.1667 117.827C69.5318 118.413 68.9635 118.644 68.4682 118.565C67.9729 118.486 67.4681 118.074 67.0332 117.39C65.8014 115.491 65.0965 111.673 65.3505 106.764C65.7791 98.3464 68.9921 95.6051 73.8749 91.4424L73.8781 91.4519ZM83.8089 81.4994C84.2661 80.9265 84.7296 80.3282 85.1963 79.6982C90.911 80.7809 96.6257 81.7717 102.442 82.3668C102.21 85.7318 102.159 87.0645 103.153 87.1689C103.721 87.2291 104.299 86.6719 105.249 85.7571C106.301 84.7212 107.408 83.7427 108.566 82.8258C112.303 79.9072 115.516 78.3212 119.602 77.7103C123.729 77.0772 128.809 77.4539 136.213 78.4352C147.493 79.9357 150.817 81.7717 150.379 85.1208C150.106 87.1847 148.509 89.9166 146.439 93.4683C145.772 94.6079 145.054 95.8362 144.296 97.1942C140.254 104.412 136.838 104.228 129.964 103.842C128.672 103.772 127.26 103.696 125.669 103.658C119.678 103.516 115.732 102.921 113.259 101.37C110.868 99.8754 109.823 97.4126 109.566 93.5C109.453 91.5224 109.475 89.5394 109.63 87.5646C109.709 86.2984 109.76 85.5418 109.277 85.2886C108.522 84.8897 107.868 86.2034 106.22 89.5114L105.537 90.8789C99.0036 85.4975 91.6126 83.174 83.8089 81.4836V81.4994ZM188.686 78.6505C190.363 78.8266 192.029 79.094 193.677 79.4513C197.461 80.2807 199.353 81.0753 200.195 82.5789C201.036 84.0825 200.953 86.558 200.712 90.6067C200.487 94.4465 199.734 98.4731 198.172 101.686C196.921 104.247 195.15 106.279 192.715 107.248C190.343 108.198 183.162 108.112 176.771 107.067C171.85 106.263 167.459 104.909 166.294 103.05C164.792 100.679 163.672 96.1369 163.732 92.0027C163.776 88.7738 164.538 85.8267 166.405 84.4845C168.627 82.8701 172.453 81.8666 176.733 81.3665C180.379 80.9622 184.054 80.8817 187.714 81.1259L187.88 82.6865C188.197 85.6463 187.88 86.8714 187.533 88.1914C187.003 90.2142 186.416 92.449 187.67 100.442C187.73 100.825 187.81 101.363 187.883 101.863C188.162 103.81 188.362 105.187 189 105.865C189.991 106.916 191.48 106.257 194.617 103.332C196.067 102.008 197.159 100.342 197.791 98.4857C198.404 96.694 198.649 94.6681 198.677 92.3097C198.677 91.569 198.706 90.8536 198.722 90.1857C198.877 83.9432 198.941 81.338 192.137 80.3409C191.096 80.1889 189.994 80.0655 188.854 79.9705L188.715 78.66L188.686 78.6505ZM188.956 81.2177C189.988 81.3064 190.985 81.4235 191.931 81.5628C197.645 82.3985 197.588 84.6808 197.452 90.1445C197.436 90.8093 197.417 91.5152 197.407 92.2876C197.379 94.5035 197.153 96.4028 196.582 98.0774C196.019 99.7399 195.042 101.233 193.743 102.417C191.277 104.725 190.251 105.406 189.889 105.013C189.527 104.621 189.343 103.405 189.096 101.686C189.038 101.294 188.978 100.876 188.88 100.249C187.664 92.5123 188.216 90.4073 188.718 88.4985C189.096 87.0645 189.445 85.7318 189.099 82.5504L188.956 81.2177ZM197.598 71.1608C197.595 71.1461 197.595 71.1312 197.598 71.1165C197.652 71.2273 197.693 71.3001 197.598 71.1608ZM252.741 94.3009C254.569 94.3636 256.4 94.2576 258.208 93.9843C258.888 94.9402 259.657 95.8304 260.504 96.6434C261.351 97.4303 262.268 98.1391 263.243 98.7611C262.829 100.527 262.588 102.33 262.523 104.143C262.471 105.772 262.547 107.403 262.751 109.021C262.13 108.838 261.492 108.718 260.846 108.663C260.062 108.615 259.275 108.665 258.503 108.812C257.87 106.372 257.105 103.968 256.211 101.61C255.284 99.1961 254.186 96.8508 252.925 94.5921L252.754 94.304L252.741 94.3009ZM159.544 226.703C161.012 226.274 162.453 225.758 163.859 225.158C161.055 239.403 159.246 251.558 157.773 261.444C155.338 277.804 153.842 287.867 150.433 290.517C145.81 294.113 136.781 283.673 115.341 256.256C101.432 233.781 96.4574 225.664 96.8225 225.436C96.9241 225.376 99.3941 227.722 103.191 231.321C109.02 236.848 117.795 245.173 127.39 251.837C132.323 255.265 137.511 256.873 142.226 256.706C144.734 256.636 147.194 256 149.42 254.844C151.671 253.646 153.601 251.925 155.046 249.827C157.665 246.079 159.173 240.815 158.916 234.081C158.862 231.606 159.075 229.132 159.551 226.703H159.544ZM170.847 219.818C169.168 221.014 167.4 222.08 165.557 223.005C165.93 221.159 166.319 219.279 166.726 217.367C166.756 217.207 166.723 217.041 166.634 216.904C166.545 216.767 166.406 216.67 166.246 216.633C166.185 216.625 166.123 216.625 166.062 216.633C164.818 216.662 163.63 216.671 162.494 216.665C164.332 212.052 166.757 207.709 169.478 204.43C171.558 201.939 173.802 200.077 176.076 199.216C177.148 198.777 178.313 198.609 179.467 198.728C180.62 198.848 181.726 199.25 182.686 199.9C186.352 202.274 189.832 208.251 192.594 219.397C196.54 235.256 213.005 233.22 225.444 231.685H225.46C216.539 240.147 208.233 243.578 200.239 242.736C191.842 241.853 183.714 236.259 175.517 226.836C175.423 226.735 175.299 226.667 175.163 226.643C175.027 226.619 174.887 226.639 174.764 226.701C174.641 226.764 174.542 226.864 174.481 226.988C174.42 227.111 174.402 227.251 174.428 227.386C178.857 243.16 185.111 248.595 195.09 257.266C196.502 258.494 197.991 259.798 199.566 261.191C197.16 260.052 194.836 259.007 192.61 258.003C175.276 250.204 164.132 245.189 171.802 220.511C171.832 220.389 171.825 220.26 171.781 220.142C171.737 220.025 171.66 219.922 171.557 219.848C171.455 219.775 171.333 219.733 171.207 219.729C171.081 219.724 170.957 219.757 170.85 219.824L170.847 219.818ZM164.154 223.673C162.746 224.31 161.299 224.861 159.824 225.322C160.377 222.794 161.11 220.308 162.017 217.883C163.076 217.896 164.185 217.896 165.345 217.883C164.921 219.846 164.525 221.776 164.154 223.673Z" fill="white"/>
</svg>
